<?xml version="1.0" standalone="no"?>
<!DOCTYPE svg PUBLIC "-//W3C//DTD SVG 20010904//EN"
 "http://www.w3.org/TR/2001/REC-SVG-20010904/DTD/svg10.dtd">
<svg version="1.0" xmlns="http://www.w3.org/2000/svg"
 width="512.000000pt" height="512.000000pt" viewBox="0 0 512.000000 512.000000"
 preserveAspectRatio="xMidYMid meet">
<metadata>
Created by potrace 1.11, written by Peter Selinger 2001-2013
</metadata>
<g transform="translate(0.000000,512.000000) scale(0.100000,-0.100000)"
fill="#000000" stroke="none">
<path d="M1549 5107 c-130 -37 -239 -148 -273 -279 -24 -94 -4 -230 45 -300
11 -14 19 -28 19 -30 0 -2 -42 -3 -92 -3 -51 0 -113 -3 -138 -7 -99 -18 -169
-98 -177 -202 -5 -60 -3 -64 76 -224 l81 -162 -42 -26 c-85 -54 -112 -103
-113 -209 l-1 -79 -34 -9 c-49 -13 -88 -43 -110 -87 -16 -31 -20 -59 -20 -140
0 -63 5 -113 14 -134 18 -44 80 -93 127 -101 36 -6 38 -8 28 -28 -18 -33 -5
-131 24 -180 28 -47 51 -68 97 -92 l31 -16 -4 -497 c-2 -273 -7 -513 -11 -532
-20 -99 -55 -217 -147 -492 -56 -167 -104 -306 -107 -310 -4 -3 -32 -9 -62
-13 -64 -8 -93 -22 -137 -65 -44 -43 -56 -94 -56 -225 l0 -111 -63 -1 c-82 -2
-141 -29 -186 -84 -46 -57 -56 -94 -54 -211 2 -87 4 -100 32 -144 33 -54 78
-89 134 -104 25 -7 759 -9 2152 -8 l2115 3 49 30 c30 19 60 49 79 79 29 47 30
54 30 160 -1 96 -4 117 -24 155 -42 81 -113 121 -215 124 l-64 2 2 108 c2 126
-13 182 -59 229 -58 59 -70 61 -276 68 -9 0 -16 6 -16 13 -1 11 -11 132 -18
212 -1 17 -6 71 -9 120 -4 50 -9 101 -11 115 -2 14 -7 70 -11 125 -3 55 -8
108 -10 117 -1 10 -6 61 -9 115 -4 54 -8 110 -11 124 -2 14 -6 63 -9 110 -3
46 -7 102 -10 124 -6 56 -14 137 -21 230 -3 44 -6 84 -7 89 -1 6 50 10 118 11
137 2 179 14 218 66 35 47 39 69 39 179 0 106 -10 136 -59 182 -15 14 -47 32
-69 38 l-42 13 5 58 c14 150 -92 259 -252 260 -36 1 -65 3 -65 6 0 3 20 27 44
55 224 257 160 667 -135 858 -102 66 -174 85 -314 84 -106 0 -128 -3 -190 -28
-236 -91 -380 -294 -380 -536 0 -124 11 -175 60 -272 24 -48 71 -113 111 -153
14 -13 8 -15 -56 -15 -116 0 -195 -46 -237 -138 -21 -45 -25 -65 -21 -117 l6
-63 -42 -12 c-51 -15 -102 -62 -117 -109 -7 -20 -12 -77 -12 -128 1 -110 18
-153 81 -197 41 -29 45 -30 168 -30 l126 -1 -7 -105 c-4 -58 -8 -107 -10 -110
-1 -3 -6 -56 -10 -118 -3 -62 -8 -121 -10 -131 -2 -10 -6 -56 -10 -102 -6 -84
-8 -114 -19 -239 -4 -36 -9 -96 -12 -135 -3 -38 -7 -86 -9 -105 -2 -19 -6 -71
-10 -115 -3 -44 -8 -96 -10 -115 -4 -38 -18 -197 -18 -217 0 -7 -3 -13 -6 -13
-3 0 -49 -2 -102 -3 -77 -3 -103 -7 -132 -25 -37 -21 -37 -21 -70 -2 -18 11
-57 22 -87 25 -30 3 -57 8 -61 13 -8 9 -226 666 -234 707 -29 142 -33 231 -34
667 l-1 457 39 20 c81 42 127 131 118 231 l-5 59 35 7 c41 8 97 53 119 97 20
38 25 187 8 246 -17 57 -57 98 -114 115 l-45 13 3 65 c6 101 -43 189 -126 229
l-30 15 76 153 c89 180 100 236 62 315 -47 97 -110 127 -271 129 l-117 2 22
40 c114 204 37 448 -171 547 -73 35 -189 46 -264 25z"/>
</g>
</svg>
